{
  "title": "Apocalypse.Now.Redux.DVDRIP-ZEKTORM",
  "uid": 4648605,
  "size": 865973415,
  "categoryP": "video",
  "categoryS": "movies",
  "magnet": "?xt=urn:btih:ddfbf1328698cddb1a5051412cdc1ab585facdb6&amp;dn=Apocalypse.Now.Redux.DVDRIP-ZEKTORM&amp;tr=udp%3A%2F%2Ftracker.openbittorrent.com%3A80&amp;tr=udp%3A%2F%2Fopen.demonii.com%3A1337&amp;tr=udp%3A%2F%2Ftracker.coppersurfer.tk%3A6969&amp;tr=udp%3A%2F%2Fexodus.desync.com%3A6969",
  "seeders": 57,
  "leechers": 3,
  "uploader": "blowley",
  "files": 4,
  "time": 1231967310,
  "description": "Title                            : Apocalypse Now\nYear                             : 1979\nGenre                            : Action | Drama | War\niMDB Rate                        : User Rating: 8.6/10   141,193\niMDB URL                         : http://www.imdb.com/title/tt0078788/\nAwards                           : Won 2 Oscars. Another 13 wins &amp; 32 nominations\n\nComplete name                    : Apocalypse.Now.Redux.DVDRIP-ZEKTORM.mp4\nFormat                           : MPEG-4\nFormat profile                   : Base Media\nCodec ID                         : isom\nFile size                        : 800 MiB\nDuration                         : 3h 13mn (Redux)\nOverall bit rate                 : 577 Kbps\nSubtitles                        : English, Spanish (Format: VobSub)\nSource                           : DVD PAL\nEncoded date                     : UTC 2009-01-13 19:08:09\n\nVideo\nFormat                           : AVC\nFormat/Info                      : Advanced Video Codec\nFormat profile                   : &lt;a class=&quot;__cf_email__&quot; href=&quot;/cdn-cgi/l/email-protection&quot; data-cfemail=&quot;3b73525c537b770f150a&quot;&gt;[email&amp;#160;protected]&lt;/a&gt;&lt;script cf-hash='f9e31' type=&quot;text/javascript&quot;&gt;\n/* &lt;![CDATA[ */!function(){try{var t=&quot;currentScript&quot;in document?document.currentScript:function(){for(var t=document.getElementsByTagName(&quot;script&quot;),e=t.length;e--;)if(t[e].getAttribute(&quot;cf-hash&quot;))return t[e]}();if(t&amp;&amp;t.previousSibling){var e,r,n,i,c=t.previousSibling,a=c.getAttribute(&quot;data-cfemail&quot;);if(a){for(e=&quot;&quot;,r=parseInt(a.substr(0,2),16),n=2;a.length-n;n+=2)i=parseInt(a.substr(n,2),16)^r,e+=String.fromCharCode(i);e=document.createTextNode(e),c.parentNode.replaceChild(e,c)}}}catch(u){}}();/* ]]&gt; */&lt;/script&gt;\nFormat settings, CABAC           : Yes\nFormat settings, ReFrames        : 10 frames\nCodec ID                         : avc1\nCodec ID/Info                    : Advanced Video Coding\nDuration                         : 3h 13mn\nBit rate mode                    : Variable\nBit rate                         : 486 Kbps\nMaximum bit rate                 : 5318 Kbps\nWidth                            : 704 pixels\nHeight                           : 496 pixels\nDisplay aspect ratio             : 2.065\nFrame rate mode                  : Constant\nFrame rate                       : 25.000 fps\nResolution                       : 24 bits\nColorimetry                      : 4:2:0\nScan type                        : Progressive\nBits/(Pixel*Frame)               : 0.056\nStream size                      : 674 MiB (84%)\nTitle                            : Video\nWriting library                  : x264 core 60 r900 a9af942\n\nAudio\nFormat                           : AAC\nFormat/Info                      : Advanced Audio Codec\nFormat version                   : Version 4\nFormat profile                   : LC\nFormat settings, SBR             : Yes\nFormat settings, PS              : No\nCodec ID                         : 40\nDuration                         : 3h 13mn\nBit rate mode                    : Variable\nBit rate                         : 87.8 Kbps\nMaximum bit rate                 : 121 Kbps\nChannel(s)                       : 2 channels\nChannel positions                : L R\nSampling rate                    : 48.0 KHz\nResolution                       : 16 bits\nStream size                      : 122 MiB (15%)\nTitle                            : English\nLanguage                         : English\n\nNotes                            : Convert to DVD with Nero",
  "parsed": {
    "xt": "urn:btih:ddfbf1328698cddb1a5051412cdc1ab585facdb6",
    "dn": "Apocalypse.Now.Redux.DVDRIP-ZEKTORM",
    "tr": [
      "udp://exodus.desync.com:6969",
      "udp://open.demonii.com:1337",
      "udp://tracker.coppersurfer.tk:6969",
      "udp://tracker.openbittorrent.com:80"
    ],
    "infoHash": "ddfbf1328698cddb1a5051412cdc1ab585facdb6",
    "infoHashBuffer": {
      "type": "Buffer",
      "data": [
        221,
        251,
        241,
        50,
        134,
        152,
        205,
        219,
        26,
        80,
        81,
        65,
        44,
        220,
        26,
        181,
        133,
        250,
        205,
        182
      ]
    },
    "name": "Apocalypse.Now.Redux.DVDRIP-ZEKTORM",
    "announce": [
      "udp://exodus.desync.com:6969",
      "udp://open.demonii.com:1337",
      "udp://tracker.coppersurfer.tk:6969",
      "udp://tracker.openbittorrent.com:80"
    ],
    "urlList": []
  },
  "previous": 7,
  "peers": 7,
  "last_updated": "2016-12-27T15:04:34.271Z"
}